<svg xmlns="http://www.w3.org/2000/svg" width="542.668" height="546.451" xml:space="preserve"><path fill="#F7931E" d="M408.298 184.407c50.35-26.15 50.2 35.34 49.15 82.79-11.66 3.15-28.35-9.04-43.97-10.35.99-26.87-.7-51.04-5.18-72.44zM452.278 280.127c-6.71 26.061-20.71 44.83-36.22 62.09-7.64-7.02-17.35-11.97-20.69-23.279 8.89-12.66 12.37-30.74 15.52-49.15 17.279-.041 25.15 9.339 41.39 10.339zM434.167 163.717c-4.26 7.81-20.01 4.13-25.87 10.34-13.38-15.93-17.33-41.31-33.63-54.32 25.631-1.47 44.581 26.11 59.5 43.98z"/><path fill="#39798F" d="M421.238-7.033c8.87 77.05-35.49 114.51-106.07 103.48-3.18-73.02 29.6-110.1 106.07-103.48z"/><path fill="#F7931E" d="M395.368 186.997c4.94 17.55 9.35 46.27 5.17 64.68-18.26-.19-51.27-7.13-77.61-7.77v-49.15c22.79-3.94 50.47-2.99 72.44-7.76zM400.538 267.197c-4.96 16.59-7.43 35.68-15.52 49.149-18.13-9.46-37.09-18.1-64.68-18.109.63-14.03 4.15-25.17 2.59-41.39 29.37-.05 55.28 3.35 77.61 10.35zM387.608 334.457c9.49-.01 9.91 9.061 15.52 12.94-12.18 22.31-40.06 28.92-67.27 36.22 21.37-12.27 40.97-26.3 51.75-49.16zM392.778 171.477c-16.5 11.1-47.13 8.06-72.44 10.35.96-23.38-7.22-37.62-7.76-59.51 51.29-18.11 66.2 16.33 80.2 49.16zM320.338 308.587c21.97 3.9 43.4 8.351 59.5 18.11-15.16 26.35-40.77 52.72-80.19 46.57 12.21-16.24 14.38-42.53 20.69-64.68zM309.988 194.757c2.73 14.52 3.07 31.43 2.59 49.15-34.03-2.79-69.86 5.77-93.13 5.18-1.37-22.93 1.66-41.46 5.17-59.5 28.82 1.36 55.4 4.97 85.37 5.17zM312.578 256.847c-2.86 10.93-2.98 24.61-2.59 38.81-29.79.38-53.31 7.04-77.61 12.93-3.47-15.49-10.11-27.819-10.35-46.57 28.27-3.66 71.66-7.79 90.55-5.17zM299.648 124.907c3.87 18.55 7.88 36.96 10.34 56.92-28.77.32-57.22.3-80.19-5.18 8.52-33.43 24.81-69.8 69.85-51.74zM302.228 111.977h-15.52c6.21-32.78-22.93-41.65-18.11-64.68 25.35 7.42 28.51 37.03 33.63 64.68zM307.408 308.587c-3.64 23.101-8.85 44.62-18.11 62.09-22.54-11.1-41.32-25.949-49.16-51.739 21.64-4.231 39.09-12.661 67.27-10.351zM224.618 326.697c17.81 20.14 34.13 41.76 56.92 56.92-40.55-2.9-111.59-28.33-56.92-56.92zM170.288 166.297c18.94-24.17 34.15-52.09 77.62-51.74-11.5 19.56-25.95 36.15-31.05 62.09-16.03-2.94-30.26-7.68-46.57-10.35z"/><path fill="#F7931E" d="M206.508 264.607c8.73 11.97 7.54 33.86 15.52 46.57-5.24 15.45-24.48 16.9-28.45 33.631-19.69-13.95-29.91-37.36-41.4-59.5 12.21-12.811 37.88-12.141 54.33-20.701zM214.268 189.587c-7.9 18.23-5.49 41.21-5.17 62.09-19.73 4.71-44.44 17.24-62.09 15.52v-51.74c8.03-10.94 7.52-30.43 18.11-38.81 16.29 4.41 35 6.39 49.15 12.94z"/><g><path fill="#39798F" stroke="#F7931E" stroke-width=".25" d="m96.502 181.875-91.974 19.13a5.537 5.537 0 0 0-4.403 5.423v60.503a5.519 5.519 0 0 0 4.213 5.37l89.27 21.82c4.76 19.679 12.138 38.336 21.888 55.481l-51.669 78.795a5.53 5.53 0 0 0 .724 6.957l42.776 42.783a5.571 5.571 0 0 0 6.802.823l80.969-49.174c15.905 9.178 33.059 16.4 51.187 21.298l18.892 90.834a5.536 5.536 0 0 0 5.419 4.406h60.513a5.521 5.521 0 0 0 5.367-4.231l22.257-91.023a213.332 213.332 0 0 0 52.654-22.155l79.793 52.323a5.522 5.522 0 0 0 6.953-.71l42.791-42.782a5.512 5.512 0 0 0 .809-6.785l-29.132-48.006-6.404-12.046c-1.377-1.146-38.859-61.471-39.667-62.666 0 0-4.744 6.649-9.607 14.101-28.684 56.141-87.045 94.596-154.438 94.596-95.749 0-173.376-77.629-173.376-173.383 0-70.44 42.016-131.017 102.33-158.156V40.678c-10.977 3.84-21.588 8.466-31.667 13.957-.009-.007-.023-.026-.051-.041L118.049 1.031a5.522 5.522 0 0 0-6.948.722L68.31 44.537a5.548 5.548 0 0 0-.812 6.794l50.096 82.505a214.2 214.2 0 0 0-21.092 48.039"/></g></svg>